{
  "accessors": [
    {
      "bufferView": 2,
      "componentType": 5126,
      "count": 3169,
      "max": [
        -0.48452281951904297,
        0.11914210766553879,
        1.388624906539917
      ],
      "min": [
        -0.7473354339599609,
        -0.048122964799404144,
        1.2241450548171997
      ],
      "type": "VEC3"
    },
    {
      "bufferView": 2,
      "byteOffset": 38028,
      "componentType": 5126,
      "count": 3169,
      "max": [
        0.9992685317993164,
        0.9995995759963989,
        0.9997020363807678
      ],
      "min": [
        -0.9992155432701111,
        -0.9999094605445862,
        -0.9991709589958191
      ],
      "type": "VEC3"
    },
    {
      "bufferView": 1,
      "componentType": 5126,
      "count": 3169,
      "max": [
        0.987316370010376,
        0.974033534526825
      ],
      "min": [
        0.012683572247624397,
        0.012683570384979248
      ],
      "type": "VEC2"
    },
    {
      "bufferView": 0,
      "componentType": 5125,
      "count": 15792,
      "type": "SCALAR"
    }
  ],
  "asset": {
    "extras": {
      "author": "ayumi ikeda (https://sketchfab.com/rxf10240)",
      "license": "CC-BY-4.0 (http://creativecommons.org/licenses/by/4.0/)",
      "source": "https://sketchfab.com/3d-models/boxing-gloves-9d244a5bfaf84ea398cff99154e99eab",
      "title": "boxing gloves💮📷"
    },
    "generator": "Sketchfab-16.9.0",
    "version": "2.0"
  },
  "bufferViews": [
    {
      "buffer": 0,
      "byteLength": 63168,
      "name": "floatBufferViews",
      "target": 34963
    },
    {
      "buffer": 0,
      "byteLength": 25352,
      "byteOffset": 63168,
      "byteStride": 8,
      "name": "floatBufferViews",
      "target": 34962
    },
    {
      "buffer": 0,
      "byteLength": 76056,
      "byteOffset": 88520,
      "byteStride": 12,
      "name": "floatBufferViews",
      "target": 34962
    }
  ],
  "buffers": [
    {
      "byteLength": 164576,
      "uri": "scene.bin"
    }
  ],
  "images": [
    {
      "uri": "textures/boxing_gloves_baseColor.png"
    }
  ],
  "materials": [
    {
      "doubleSided": true,
      "name": "boxing_gloves",
      "pbrMetallicRoughness": {
        "baseColorTexture": {
          "index": 0
        },
        "metallicFactor": 0.0,
        "roughnessFactor": 0.25790250027428663
      }
    }
  ],
  "meshes": [
    {
      "name": "boxing_gloves.L_boxing_gloves_0",
      "primitives": [
        {
          "attributes": {
            "NORMAL": 1,
            "POSITION": 0,
            "TEXCOORD_0": 2
          },
          "indices": 3,
          "material": 0,
          "mode": 4
        }
      ]
    }
  ],
  "nodes": [
    {
      "children": [
        1
      ],
      "matrix": [
        1.0,
        0.0,
        0.0,
        0.0,
        0.0,
        2.220446049250313e-16,
        -1.0,
        0.0,
        0.0,
        1.0,
        2.220446049250313e-16,
        0.0,
        0.0,
        0.0,
        0.0,
        1.0
      ],
      "name": "Sketchfab_model"
    },
    {
      "children": [
        2
      ],
      "matrix": [
        0.009999999776482582,
        0.0,
        0.0,
        0.0,
        0.0,
        0.0,
        0.009999999776482582,
        0.0,
        0.0,
        -0.009999999776482582,
        0.0,
        0.0,
        0.0,
        0.0,
        0.0,
        1.0
      ],
      "name": "boxing_gloves.L.fbx"
    },
    {
      "children": [
        3
      ],
      "name": "RootNode"
    },
    {
      "children": [
        4
      ],
      "matrix": [
        -99.99999999999925,
        -8.742277980456455e-06,
        8.74227694680484e-06,
        0.0,
        8.742276564667676e-06,
        4.3711397612611336e-06,
        99.99999999999952,
        0.0,
        -8.742278362593557e-06,
        99.99999999999952,
        -4.371139006309477e-06,
        0.0,
        0.0,
        0.0,
        0.0,
        1.0
      ],
      "name": "boxing_gloves.L"
    },
    {
      "mesh": 0,
      "name": "boxing_gloves.L_boxing_gloves_0"
    }
  ],
  "samplers": [
    {
      "magFilter": 9729,
      "minFilter": 9987,
      "wrapS": 10497,
      "wrapT": 10497
    }
  ],
  "scene": 0,
  "scenes": [
    {
      "name": "Sketchfab_Scene",
      "nodes": [
        0
      ]
    }
  ],
  "textures": [
    {
      "sampler": 0,
      "source": 0
    }
  ]
}
